<mxfile host="app.diagrams.net" agent="Mozilla/5.0 (Windows NT 10.0; Win64; x64) AppleWebKit/537.36 (KHTML, like Gecko) Chrome/139.0.0.0 Safari/537.36" version="28.0.7">
  <diagram name="Page-1" id="LcrWXw8X3sOXEg6AJ9rw">
    <mxGraphModel dx="1802" dy="2090" grid="1" gridSize="10" guides="1" tooltips="1" connect="1" arrows="1" fold="1" page="1" pageScale="1" pageWidth="850" pageHeight="1100" math="0" shadow="0">
      <root>
        <mxCell id="0" />
        <mxCell id="1" parent="0" />
        <mxCell id="V4nRgCfWSSUk7i4Xiw2p-1" value="&lt;font style=&quot;font-size: 36px;&quot;&gt;Student Information System&lt;/font&gt;" style="rounded=0;whiteSpace=wrap;html=1;" vertex="1" parent="1">
          <mxGeometry x="460" y="-1070" width="810" height="60" as="geometry" />
        </mxCell>
        <mxCell id="V4nRgCfWSSUk7i4Xiw2p-22" value="" style="edgeStyle=orthogonalEdgeStyle;rounded=0;orthogonalLoop=1;jettySize=auto;html=1;" edge="1" parent="1" source="V4nRgCfWSSUk7i4Xiw2p-2" target="V4nRgCfWSSUk7i4Xiw2p-3">
          <mxGeometry relative="1" as="geometry" />
        </mxCell>
        <mxCell id="V4nRgCfWSSUk7i4Xiw2p-51" style="edgeStyle=orthogonalEdgeStyle;rounded=0;orthogonalLoop=1;jettySize=auto;html=1;" edge="1" parent="1" source="V4nRgCfWSSUk7i4Xiw2p-2">
          <mxGeometry relative="1" as="geometry">
            <mxPoint x="510" y="-910" as="targetPoint" />
          </mxGeometry>
        </mxCell>
        <mxCell id="V4nRgCfWSSUk7i4Xiw2p-2" value="&lt;font style=&quot;font-size: 24px;&quot;&gt;Admin&lt;/font&gt;" style="rounded=0;whiteSpace=wrap;html=1;fillColor=#FF6666;" vertex="1" parent="1">
          <mxGeometry x="170" y="-940" width="170" height="60" as="geometry" />
        </mxCell>
        <mxCell id="V4nRgCfWSSUk7i4Xiw2p-23" value="" style="edgeStyle=orthogonalEdgeStyle;rounded=0;orthogonalLoop=1;jettySize=auto;html=1;" edge="1" parent="1" source="V4nRgCfWSSUk7i4Xiw2p-3" target="V4nRgCfWSSUk7i4Xiw2p-4">
          <mxGeometry relative="1" as="geometry" />
        </mxCell>
        <mxCell id="V4nRgCfWSSUk7i4Xiw2p-3" value="&lt;div&gt;&lt;font style=&quot;font-size: 24px;&quot;&gt;Forgot Password&lt;/font&gt;&lt;/div&gt;" style="ellipse;whiteSpace=wrap;html=1;aspect=fixed;fillColor=#FF6666;" vertex="1" parent="1">
          <mxGeometry x="187.5" y="-780" width="135" height="135" as="geometry" />
        </mxCell>
        <mxCell id="V4nRgCfWSSUk7i4Xiw2p-4" value="&lt;font style=&quot;font-size: 24px;&quot;&gt;Send Email to Use&lt;/font&gt;r" style="ellipse;whiteSpace=wrap;html=1;aspect=fixed;fillColor=#FF6666;" vertex="1" parent="1">
          <mxGeometry x="185" y="-540" width="140" height="140" as="geometry" />
        </mxCell>
        <mxCell id="V4nRgCfWSSUk7i4Xiw2p-5" value="&lt;font style=&quot;font-size: 24px;&quot;&gt;Login to System&lt;/font&gt;" style="ellipse;whiteSpace=wrap;html=1;aspect=fixed;fillColor=#FF6666;" vertex="1" parent="1">
          <mxGeometry x="520" y="-970" width="140" height="140" as="geometry" />
        </mxCell>
        <mxCell id="V4nRgCfWSSUk7i4Xiw2p-7" value="&lt;font style=&quot;font-size: 24px;&quot;&gt;Manage Modules&lt;/font&gt;" style="ellipse;whiteSpace=wrap;html=1;aspect=fixed;fillColor=#FF6666;" vertex="1" parent="1">
          <mxGeometry x="890" y="-730" width="140" height="140" as="geometry" />
        </mxCell>
        <mxCell id="V4nRgCfWSSUk7i4Xiw2p-45" value="" style="edgeStyle=orthogonalEdgeStyle;rounded=0;orthogonalLoop=1;jettySize=auto;html=1;" edge="1" parent="1" source="V4nRgCfWSSUk7i4Xiw2p-8" target="V4nRgCfWSSUk7i4Xiw2p-7">
          <mxGeometry relative="1" as="geometry" />
        </mxCell>
        <mxCell id="V4nRgCfWSSUk7i4Xiw2p-8" value="&lt;font style=&quot;font-size: 24px;&quot;&gt;Check Roles of Access&lt;/font&gt;" style="ellipse;whiteSpace=wrap;html=1;aspect=fixed;fillColor=#FF6666;" vertex="1" parent="1">
          <mxGeometry x="890" y="-950" width="140" height="140" as="geometry" />
        </mxCell>
        <mxCell id="V4nRgCfWSSUk7i4Xiw2p-10" value="&lt;font style=&quot;font-size: 24px;&quot;&gt;Manage System Admins&lt;/font&gt;" style="rounded=0;whiteSpace=wrap;html=1;fillColor=#FF6666;" vertex="1" parent="1">
          <mxGeometry x="100" y="-250" width="250" height="60" as="geometry" />
        </mxCell>
        <mxCell id="V4nRgCfWSSUk7i4Xiw2p-11" value="&lt;font style=&quot;font-size: 24px;&quot;&gt;Manage Roles of User&lt;/font&gt;" style="rounded=0;whiteSpace=wrap;html=1;fillColor=#FF6666;" vertex="1" parent="1">
          <mxGeometry x="420" y="-250" width="260" height="60" as="geometry" />
        </mxCell>
        <mxCell id="V4nRgCfWSSUk7i4Xiw2p-12" value="&lt;font style=&quot;font-size: 24px;&quot;&gt;Manage User Permission&lt;/font&gt;" style="rounded=0;whiteSpace=wrap;html=1;fillColor=#FF6666;" vertex="1" parent="1">
          <mxGeometry x="810" y="-250" width="270" height="60" as="geometry" />
        </mxCell>
        <mxCell id="V4nRgCfWSSUk7i4Xiw2p-13" value="&lt;font style=&quot;font-size: 24px;&quot;&gt;Manage Timetable Details&lt;/font&gt;" style="rounded=0;whiteSpace=wrap;html=1;fillColor=#FF6666;" vertex="1" parent="1">
          <mxGeometry x="1290" y="-930" width="360" height="60" as="geometry" />
        </mxCell>
        <mxCell id="V4nRgCfWSSUk7i4Xiw2p-14" value="&lt;font style=&quot;font-size: 24px;&quot;&gt;Manage Attendance Details&lt;/font&gt;" style="rounded=0;whiteSpace=wrap;html=1;fillColor=#FF6666;" vertex="1" parent="1">
          <mxGeometry x="1290" y="-810" width="350" height="60" as="geometry" />
        </mxCell>
        <mxCell id="V4nRgCfWSSUk7i4Xiw2p-15" value="&lt;font style=&quot;font-size: 24px;&quot;&gt;Manage Class Details&lt;/font&gt;" style="rounded=0;whiteSpace=wrap;html=1;fillColor=#FF6666;" vertex="1" parent="1">
          <mxGeometry x="1290" y="-690" width="350" height="60" as="geometry" />
        </mxCell>
        <mxCell id="V4nRgCfWSSUk7i4Xiw2p-18" value="&lt;font style=&quot;font-size: 24px;&quot;&gt;Manage Student Details&lt;/font&gt;" style="rounded=0;whiteSpace=wrap;html=1;fillColor=#FF6666;" vertex="1" parent="1">
          <mxGeometry x="1290" y="-570" width="350" height="60" as="geometry" />
        </mxCell>
        <mxCell id="V4nRgCfWSSUk7i4Xiw2p-19" value="&lt;font style=&quot;font-size: 24px;&quot;&gt;Manage Fees Details&lt;/font&gt;" style="rounded=0;whiteSpace=wrap;html=1;fillColor=#FF6666;" vertex="1" parent="1">
          <mxGeometry x="1290" y="-460" width="350" height="60" as="geometry" />
        </mxCell>
        <mxCell id="V4nRgCfWSSUk7i4Xiw2p-20" value="&lt;font style=&quot;font-size: 24px;&quot;&gt;Manage Teacher Profiles&lt;/font&gt;" style="rounded=0;whiteSpace=wrap;html=1;fillColor=#FF6666;" vertex="1" parent="1">
          <mxGeometry x="1290" y="-340" width="350" height="60" as="geometry" />
        </mxCell>
        <mxCell id="V4nRgCfWSSUk7i4Xiw2p-21" value="&lt;font style=&quot;font-size: 24px;&quot;&gt;Manage Report&lt;/font&gt;" style="rounded=0;whiteSpace=wrap;html=1;fillColor=#FF6666;" vertex="1" parent="1">
          <mxGeometry x="1290" y="-230" width="350" height="60" as="geometry" />
        </mxCell>
        <mxCell id="V4nRgCfWSSUk7i4Xiw2p-26" style="edgeStyle=orthogonalEdgeStyle;rounded=0;orthogonalLoop=1;jettySize=auto;html=1;" edge="1" parent="1">
          <mxGeometry relative="1" as="geometry">
            <mxPoint x="660.361742606774" y="-670.9750651324514" as="sourcePoint" />
            <mxPoint x="660.1435850303442" y="-655.5227729081553" as="targetPoint" />
          </mxGeometry>
        </mxCell>
        <mxCell id="V4nRgCfWSSUk7i4Xiw2p-27" style="edgeStyle=orthogonalEdgeStyle;rounded=0;orthogonalLoop=1;jettySize=auto;html=1;" edge="1" parent="1">
          <mxGeometry relative="1" as="geometry">
            <mxPoint x="660.361742606774" y="-670.9750651324514" as="sourcePoint" />
            <mxPoint x="660.1435850303442" y="-655.5227729081553" as="targetPoint" />
          </mxGeometry>
        </mxCell>
        <mxCell id="V4nRgCfWSSUk7i4Xiw2p-28" value="&lt;font style=&quot;font-size: 24px;&quot;&gt;Check Credentials&lt;/font&gt;" style="ellipse;whiteSpace=wrap;html=1;aspect=fixed;fillColor=#FF6666;" vertex="1" parent="1">
          <mxGeometry x="540" y="-730" width="140" height="140" as="geometry" />
        </mxCell>
        <mxCell id="V4nRgCfWSSUk7i4Xiw2p-34" value="" style="endArrow=classic;html=1;rounded=0;entryX=0;entryY=0.5;entryDx=0;entryDy=0;" edge="1" parent="1" source="V4nRgCfWSSUk7i4Xiw2p-7" target="V4nRgCfWSSUk7i4Xiw2p-13">
          <mxGeometry width="50" height="50" relative="1" as="geometry">
            <mxPoint x="1170" y="-840" as="sourcePoint" />
            <mxPoint x="1050" y="-700" as="targetPoint" />
          </mxGeometry>
        </mxCell>
        <mxCell id="V4nRgCfWSSUk7i4Xiw2p-35" value="" style="endArrow=classic;html=1;rounded=0;exitX=1;exitY=0.5;exitDx=0;exitDy=0;" edge="1" parent="1" source="V4nRgCfWSSUk7i4Xiw2p-7">
          <mxGeometry width="50" height="50" relative="1" as="geometry">
            <mxPoint x="1060" y="-660" as="sourcePoint" />
            <mxPoint x="1270" y="-780" as="targetPoint" />
          </mxGeometry>
        </mxCell>
        <mxCell id="V4nRgCfWSSUk7i4Xiw2p-36" value="" style="endArrow=classic;html=1;rounded=0;exitX=1.034;exitY=0.634;exitDx=0;exitDy=0;exitPerimeter=0;" edge="1" parent="1" source="V4nRgCfWSSUk7i4Xiw2p-7">
          <mxGeometry width="50" height="50" relative="1" as="geometry">
            <mxPoint x="870" y="-540" as="sourcePoint" />
            <mxPoint x="1270" y="-660" as="targetPoint" />
          </mxGeometry>
        </mxCell>
        <mxCell id="V4nRgCfWSSUk7i4Xiw2p-37" value="" style="endArrow=classic;html=1;rounded=0;exitX=0.992;exitY=0.748;exitDx=0;exitDy=0;exitPerimeter=0;" edge="1" parent="1" source="V4nRgCfWSSUk7i4Xiw2p-7">
          <mxGeometry width="50" height="50" relative="1" as="geometry">
            <mxPoint x="870" y="-540" as="sourcePoint" />
            <mxPoint x="1280" y="-560" as="targetPoint" />
          </mxGeometry>
        </mxCell>
        <mxCell id="V4nRgCfWSSUk7i4Xiw2p-38" value="" style="endArrow=classic;html=1;rounded=0;" edge="1" parent="1" source="V4nRgCfWSSUk7i4Xiw2p-7">
          <mxGeometry width="50" height="50" relative="1" as="geometry">
            <mxPoint x="870" y="-540" as="sourcePoint" />
            <mxPoint x="1280" y="-420" as="targetPoint" />
          </mxGeometry>
        </mxCell>
        <mxCell id="V4nRgCfWSSUk7i4Xiw2p-39" value="" style="endArrow=classic;html=1;rounded=0;" edge="1" parent="1" source="V4nRgCfWSSUk7i4Xiw2p-7">
          <mxGeometry width="50" height="50" relative="1" as="geometry">
            <mxPoint x="870" y="-540" as="sourcePoint" />
            <mxPoint x="1280" y="-310" as="targetPoint" />
          </mxGeometry>
        </mxCell>
        <mxCell id="V4nRgCfWSSUk7i4Xiw2p-40" value="" style="endArrow=classic;html=1;rounded=0;" edge="1" parent="1" source="V4nRgCfWSSUk7i4Xiw2p-7">
          <mxGeometry width="50" height="50" relative="1" as="geometry">
            <mxPoint x="870" y="-540" as="sourcePoint" />
            <mxPoint x="1270" y="-200" as="targetPoint" />
          </mxGeometry>
        </mxCell>
        <mxCell id="V4nRgCfWSSUk7i4Xiw2p-41" value="" style="endArrow=classic;html=1;rounded=0;exitX=0.5;exitY=1;exitDx=0;exitDy=0;" edge="1" parent="1" source="V4nRgCfWSSUk7i4Xiw2p-7">
          <mxGeometry width="50" height="50" relative="1" as="geometry">
            <mxPoint x="870" y="-540" as="sourcePoint" />
            <mxPoint x="920" y="-260" as="targetPoint" />
          </mxGeometry>
        </mxCell>
        <mxCell id="V4nRgCfWSSUk7i4Xiw2p-42" value="" style="endArrow=classic;html=1;rounded=0;" edge="1" parent="1" source="V4nRgCfWSSUk7i4Xiw2p-7">
          <mxGeometry width="50" height="50" relative="1" as="geometry">
            <mxPoint x="870" y="-540" as="sourcePoint" />
            <mxPoint x="570" y="-260" as="targetPoint" />
          </mxGeometry>
        </mxCell>
        <mxCell id="V4nRgCfWSSUk7i4Xiw2p-43" value="" style="endArrow=classic;html=1;rounded=0;" edge="1" parent="1" source="V4nRgCfWSSUk7i4Xiw2p-7">
          <mxGeometry width="50" height="50" relative="1" as="geometry">
            <mxPoint x="870" y="-540" as="sourcePoint" />
            <mxPoint x="270" y="-260" as="targetPoint" />
          </mxGeometry>
        </mxCell>
        <mxCell id="V4nRgCfWSSUk7i4Xiw2p-44" value="" style="endArrow=classic;html=1;rounded=0;" edge="1" parent="1" source="V4nRgCfWSSUk7i4Xiw2p-28" target="V4nRgCfWSSUk7i4Xiw2p-8">
          <mxGeometry width="50" height="50" relative="1" as="geometry">
            <mxPoint x="870" y="-540" as="sourcePoint" />
            <mxPoint x="920" y="-590" as="targetPoint" />
          </mxGeometry>
        </mxCell>
      </root>
    </mxGraphModel>
  </diagram>
</mxfile>
